<?xml version="1.0" encoding="utf-8"?>
<!-- Generator: Adobe Illustrator 21.0.0, SVG Export Plug-In . SVG Version: 6.00 Build 0)  -->
<svg version="1.1" id="logo" xmlns="http://www.w3.org/2000/svg" xmlns:xlink="http://www.w3.org/1999/xlink" x="0px" y="0px"
	 viewBox="0 0 123.5 26.5" style="enable-background:new 0 0 123.5 26.5;" xml:space="preserve">
<style type="text/css">
	.st0{fill:#FFFFFF;}
</style>
<g>
	<g>
		<path class="st0" d="M45.2,10c-1.1-1.1-2.2-1.6-3.6-1.6c-1.5,0-2.8,0.5-3.8,1.7c-1,1.2-1.5,2.6-1.5,4.3c0,1.7,0.5,3.2,1.5,4.3
			c1,1.2,2.3,1.7,3.8,1.7c1.3,0,2.4-0.5,3.5-1.5V20h2.7V8.6h-2.6V10z M44.4,17c-0.6,0.6-1.3,1-2.3,1c-0.9,0-1.7-0.4-2.2-1.1
			c-0.6-0.7-0.9-1.6-0.9-2.7c0-1,0.3-1.9,0.9-2.6c0.6-0.7,1.3-1,2.2-1c1,0,1.7,0.4,2.3,1c0.6,0.7,0.9,1.6,0.9,2.6
			C45.3,15.4,45,16.3,44.4,17z"/>
	</g>
	<g>
		<path class="st0" d="M55,8.6c-0.4,0.2-0.8,0.5-1.3,1.1v-1h-2.6v11.3h2.6v-5.9c0-2.1,0.7-3.2,2.1-3.2c0.4,0,1,0.2,1.4,0.5l1.2-2.4
			c-0.7-0.4-1.4-0.7-2.1-0.7C55.8,8.4,55.3,8.4,55,8.6z"/>
	</g>
	<g>
		<path class="st0" d="M68.2,10c-1.1-1.1-2.2-1.6-3.6-1.6c-1.5,0-2.8,0.5-3.8,1.7c-1,1.2-1.5,2.6-1.5,4.3c0,1.7,0.5,3.2,1.5,4.3
			c1,1.2,2.3,1.7,3.8,1.7c1.2,0,2.4-0.5,3.5-1.5V20h2.6V8.6h-2.6L68.2,10L68.2,10z M67.5,17c-0.6,0.6-1.3,1-2.3,1
			c-0.9,0-1.7-0.4-2.2-1.1c-0.6-0.7-0.9-1.6-0.9-2.7c0-1,0.3-1.9,0.9-2.6c0.6-0.7,1.3-1,2.2-1c1,0,1.7,0.4,2.3,1
			c0.6,0.7,0.9,1.6,0.9,2.6C68.4,15.4,68,16.3,67.5,17z"/>
	</g>
	<g>
		<path class="st0" d="M79.8,8.4c-1.2,0-2.1,0.4-3.1,1.3V8.6h-2.6V20h2.6v-5.4c0-1.4,0.2-2.4,0.5-2.9c0.4-0.5,1-0.9,1.9-0.9
			c0.8,0,1.3,0.2,1.6,0.6c0.3,0.4,0.4,1.2,0.4,2.3V20h2.6v-7c0-1.6-0.4-2.8-1-3.5C82.2,8.8,81.1,8.4,79.8,8.4z"/>
	</g>
	<g>
		<polygon class="st0" points="89.9,4.5 87.2,4.5 87.2,8.6 86.1,8.6 86.1,11.1 87.2,11.1 87.2,20 89.9,20 89.9,11.1 91.9,11.1
			91.9,8.6 89.9,8.6 		"/>
	</g>
	<g>
		<polygon class="st0" points="32.6,4.5 29.9,4.5 29.9,8.6 28.9,8.6 28.9,11.1 29.9,11.1 29.9,20 32.6,20 32.6,11.1 34.6,11.1
			34.6,8.6 32.6,8.6 		"/>
	</g>
	<g>
		<path class="st0" d="M100.9,15.1c0,1.9-0.9,2.9-2.4,2.9s-2.2-1-2.2-2.9V8.6h-2.6v6.5c0,1.1,0.1,1.8,0.4,2.3
			c0.3,0.6,0.6,1.2,1.2,1.6c0.9,0.8,2,1.2,3.4,1.2c1.3,0,2.5-0.4,3.4-1.2c0.5-0.4,0.9-1,1.2-1.6s0.4-1.4,0.4-2.3V8.6h-2.6V15.1z"/>
	</g>
	<g>
		<rect x="106.7" y="0.3" class="st0" width="2.6" height="19.6"/>
	</g>
	<g>
		<path class="st0" d="M121,8.6V10c-1.1-1.1-2.2-1.6-3.6-1.6c-1.5,0-2.8,0.5-3.8,1.7c-1,1.2-1.5,2.6-1.5,4.3c0,1.7,0.5,3.2,1.5,4.3
			c1,1.2,2.3,1.7,3.8,1.7c1.2,0,2.4-0.5,3.5-1.5V20h2.6V8.6H121z M120.2,17c-0.6,0.6-1.3,1-2.3,1c-0.9,0-1.7-0.4-2.2-1.1
			c-0.6-0.7-0.9-1.6-0.9-2.7c0-1,0.3-1.9,0.9-2.6c0.6-0.7,1.3-1,2.2-1c1,0,1.7,0.4,2.3,1c0.6,0.7,0.9,1.6,0.9,2.6
			C121.1,15.4,120.8,16.3,120.2,17z"/>
	</g>
</g>
<g>
	<path class="st0" d="M1.6,7.7L0.3,6.9C0.2,7.1,0.2,7.3,0.2,7.5v11.1c0,0.2,0,0.4,0.1,0.5l1.3-0.8V7.7z"/>
	<path class="st0" d="M1.8,18.8l-1.3,0.7C0.6,19.7,0.8,19.9,1,20l9.6,5.5c0.2,0.1,0.4,0.2,0.6,0.2v-1.5L1.8,18.8z"/>
	<path class="st0" d="M11.6,24.2v1.5c0.2,0,0.4-0.1,0.6-0.2l9.6-5.5c0.2-0.1,0.3-0.3,0.5-0.4L21,18.8L11.6,24.2z"/>
	<path class="st0" d="M21.2,18.3l1.3,0.8c0.1-0.2,0.1-0.4,0.1-0.6V7.5c0-0.2-0.1-0.5-0.2-0.7l-1.3,0.8V18.3z"/>
	<path class="st0" d="M11.1,1.9V0.3c-0.2,0-0.4,0.1-0.6,0.2L1,6.1C0.8,6.2,0.7,6.3,0.5,6.5l1.3,0.7L11.1,1.9z"/>
	<path class="st0" d="M20.9,7.2l1.3-0.8c-0.1-0.1-0.2-0.2-0.4-0.3l-9.6-5.5c-0.2-0.1-0.4-0.2-0.6-0.2v1.5L20.9,7.2z"/>
	<path class="st0" d="M4.4,9.2L3.1,8.5C3,8.7,3,8.9,3,9.1v7.8c0,0.2,0,0.4,0.1,0.5l1.3-0.8V9.2z"/>
	<path class="st0" d="M18.2,8.8l1.3-0.8c-0.1-0.1-0.3-0.3-0.4-0.4l-6.8-3.9c-0.2-0.1-0.4-0.2-0.6-0.2v1.5L18.2,8.8z"/>
	<path class="st0" d="M18.4,16.7l1.3,0.8c0.1-0.2,0.1-0.4,0.1-0.6V9.1c0-0.2-0.1-0.4-0.1-0.6l-1.3,0.8V16.7z"/>
	<path class="st0" d="M11.6,21v1.5c0.2,0,0.4-0.1,0.6-0.2l6.8-3.9c0.2-0.1,0.3-0.3,0.5-0.4l-1.3-0.7L11.6,21z"/>
	<path class="st0" d="M4.6,17.2l-1.3,0.7c0.1,0.2,0.3,0.3,0.5,0.5l6.8,3.9c0.2,0.1,0.4,0.2,0.6,0.2V21L4.6,17.2z"/>
	<path class="st0" d="M11.1,5.1V3.6c-0.2,0-0.4,0.1-0.6,0.2L3.8,7.7C3.6,7.8,3.5,7.9,3.4,8.1l1.3,0.7L11.1,5.1z"/>
	<path class="st0" d="M15.6,15.1l1.3,0.8c0.1-0.2,0.1-0.4,0.1-0.5v-4.6c0-0.2,0-0.4-0.1-0.5L15.6,11V15.1z"/>
	<path class="st0" d="M7.4,15.6l-1.3,0.7c0.1,0.2,0.3,0.3,0.5,0.5l4,2.3c0.2,0.1,0.4,0.2,0.6,0.2v-1.5L7.4,15.6z"/>
	<path class="st0" d="M15.5,10.5l1.2-0.8c-0.1-0.2-0.3-0.3-0.5-0.5l-4-2.3c-0.2-0.1-0.4-0.2-0.6-0.2v1.5L15.5,10.5z"/>
	<path class="st0" d="M7.2,10.8l-1.3-0.7c-0.1,0.2-0.1,0.4-0.1,0.6v4.6c0,0.2,0,0.4,0.1,0.5l1.3-0.8V10.8z"/>
	<path class="st0" d="M11.6,17.7v1.5c0.2,0,0.4-0.1,0.6-0.2l4-2.3c0.2-0.1,0.4-0.3,0.5-0.5l-1.3-0.7L11.6,17.7z"/>
	<path class="st0" d="M11.1,8.3V6.8c-0.2,0-0.4,0.1-0.6,0.2l-4,2.3C6.5,9.4,6.3,9.5,6.2,9.7l1.3,0.8L11.1,8.3z"/>
	<path class="st0" d="M9.4,15.1l1.1,0.7c0.3,0.1,0.5,0.2,0.8,0.2s0.6-0.1,0.8-0.2l1.1-0.7c0.5-0.3,0.8-0.9,0.8-1.4v-1.3
		c0-0.6-0.3-1.2-0.8-1.4l-1.1-0.7c-0.5-0.3-1.2-0.3-1.7,0l-1.1,0.7c-0.5,0.3-0.8,0.9-0.8,1.4v1.3C8.6,14.3,8.9,14.8,9.4,15.1z
		 M11.3,11.5c0,0,0.1,0,0.1,0s0.1,0,0.1,0l1.1,0.7c0.1,0,0.1,0.1,0.1,0.2v1.3c0,0.1,0,0.2-0.1,0.2l-1.1,0.7c-0.1,0-0.2,0-0.2,0
		l-1.1-0.7c-0.1,0-0.1-0.1-0.1-0.2v-1.3"/>
</g>
</svg>
