<?xml version="1.0" encoding="utf-8"?>
<!-- Generator: Adobe Illustrator 21.0.0, SVG Export Plug-In . SVG Version: 6.00 Build 0)  -->
<svg version="1.1" id="图层_1" xmlns="http://www.w3.org/2000/svg" xmlns:xlink="http://www.w3.org/1999/xlink" x="0px" y="0px"
	 viewBox="0 0 165.9 50" style="enable-background:new 0 0 165.9 50;" xml:space="preserve">
<style type="text/css">
	.st0{fill:#FFFFFF;}
</style>
<g>
	<path class="st0" d="M34.3,16.7h6.1v22.8h2.1c1.1,0,1.9-0.9,1.9-1.9V16.7h3.7c1.3,0,2.3-1.1,2.3-2.3v-1.5H36.2
		c-1,0-1.9,0.9-1.9,1.9V16.7z"/>
</g>
<g>
	<path class="st0" d="M62.9,24.6c-1.6-1.6-3.3-2.4-5.3-2.4c-2.3,0-4.1,0.8-5.7,2.5c-1.5,1.7-2.3,3.8-2.3,6.4c0,2.5,0.8,4.8,2.3,6.4
		c1.5,1.7,3.4,2.5,5.7,2.5c1.9,0,3.6-0.8,5.2-2.3v1.7H65c1,0,1.7-0.8,1.7-1.7V22.7h-1.9C63.8,22.7,62.9,23.6,62.9,24.6L62.9,24.6z
		 M61.8,35.1c-0.9,0.9-2,1.5-3.4,1.5c-1.3,0-2.5-0.5-3.3-1.6c-0.9-1.1-1.3-2.4-1.3-4c0-1.5,0.4-2.8,1.3-3.8c0.9-1.1,2-1.5,3.3-1.5
		c1.5,0,2.5,0.5,3.4,1.5c0.9,1.1,1.3,2.4,1.3,3.8C63.1,32.7,62.6,34.1,61.8,35.1z"/>
</g>
<g>
	<path class="st0" d="M74.8,22.7c-0.5,0.3-1.2,0.8-1.9,1.6v-1.5H71c-1.1,0-1.9,0.9-1.9,1.9v14.9h2.1c1,0,1.8-0.8,1.8-1.8v-7
		c0-3.2,1.1-4.8,3.2-4.8c0.7,0,1.5,0.3,2.1,0.8l1.7-3.6c-1.1-0.7-2.1-1.1-3.2-1.1C76,22.3,75.3,22.4,74.8,22.7z"/>
</g>
<g>
	<path class="st0" d="M93.1,24.6c-1.6-1.6-3.3-2.4-5.3-2.4c-2.3,0-4.1,0.8-5.7,2.5c-1.5,1.7-2.3,3.8-2.3,6.4c0,2.5,0.8,4.8,2.3,6.4
		c1.5,1.7,3.4,2.5,5.7,2.5c1.9,0,3.6-0.8,5.2-2.3v1.7h1.8c1.2,0,2.1-0.9,2.1-2.1V22.7H95c-1.1,0-2,0.9-2,2v0H93.1z M92,35.1
		c-0.9,0.9-2,1.5-3.4,1.5c-1.3,0-2.5-0.5-3.3-1.6c-0.9-1.1-1.3-2.4-1.3-4c0-1.5,0.4-2.8,1.3-3.8c0.9-1.1,2-1.5,3.3-1.5
		c1.5,0,2.5,0.5,3.4,1.5c0.9,1.1,1.3,2.4,1.3,3.8C93.4,32.7,92.8,34.1,92,35.1z"/>
</g>
<g>
	<path class="st0" d="M107.7,22.3c-1.7,0-3.2,0.7-4.6,2v-1.6h-1.8c-1.1,0-2.1,0.9-2.1,2.1v14.8h2c1,0,1.9-0.8,1.9-1.9v-6.2
		c0-2.1,0.3-3.6,0.8-4.4c0.5-0.8,1.5-1.3,2.8-1.3c1.2,0,2,0.3,2.4,0.9c0.4,0.7,0.7,1.7,0.7,3.4v9.4h1.9c1.1,0,1.9-0.9,1.9-1.9v-8.4
		c0-2.4-0.5-4.1-1.5-5.2C111.3,22.9,109.7,22.3,107.7,22.3z"/>
</g>
<g>
	<path class="st0" d="M121.3,16.6h-1.9c-1.1,0-2,0.9-2,2v4.1h-1.6v3.7h1.6v13.1h1.5c1.4,0,2.4-1.1,2.4-2.4V26.4h2.9v-3.7h-2.9V16.6z
		"/>
</g>
<g>
	<path class="st0" d="M136.3,32.3c0,2.8-1.3,4.2-3.6,4.2c-2.3,0-3.3-1.5-3.3-4.2v-9.7h-1.7c-1.2,0-2.1,0.9-2.1,2.1v7.6
		c0,1.6,0.1,2.7,0.5,3.4c0.4,0.9,0.9,1.7,1.7,2.4c1.3,1.2,2.9,1.7,5,1.7c2,0,3.7-0.5,5-1.7c0.8-0.7,1.3-1.5,1.7-2.4
		c0.4-0.9,0.5-2.1,0.5-3.4v-9.7h-1.8c-1.1,0-2,0.9-2,2V32.3L136.3,32.3z"/>
</g>
<g>
	<path class="st0" d="M144.3,10.3h1.9v27c0,1.2-1,2.2-2.2,2.2h-1.6V12.3C142.3,11.2,143.2,10.3,144.3,10.3z"/>
</g>
<g>
	<path class="st0" d="M162.8,22.7c-1.1,0-2,0.9-2,2v0c-1.6-1.6-3.3-2.4-5.3-2.4c-2.3,0-4.1,0.8-5.7,2.5c-1.5,1.7-2.3,3.8-2.3,6.4
		c0,2.5,0.8,4.8,2.3,6.4c1.5,1.7,3.4,2.5,5.7,2.5c1.9,0,3.6-0.8,5.2-2.3v1.7l0,0c2.1,0,3.8-1.7,3.8-3.8v-13H162.8z M159.6,35.1
		c-0.9,0.9-2,1.5-3.4,1.5c-1.3,0-2.5-0.5-3.3-1.6c-0.9-1.1-1.3-2.4-1.3-4c0-1.5,0.4-2.8,1.3-3.8c0.9-1.1,2-1.5,3.3-1.5
		c1.5,0,2.5,0.5,3.4,1.5c0.9,1.1,1.3,2.4,1.3,3.8C161,32.7,160.6,34.1,159.6,35.1z"/>
</g>
<path class="st0" d="M0.3,12.6L0.3,12.6c0,1.3,1.1,2.4,2.4,2.4h10.3c0.1,1.5,0.5,3,1.2,4.4l-5.9,3.4c-1-1.9-1.7-3.9-2-6
	c-0.1-0.6-0.7-1-1.3-1h0c-0.7,0.1-1.2,0.7-1,1.4C4.3,19.6,5,21.9,6.2,24l-2,1.1c-0.6,0.3-0.8,1.1-0.4,1.6l0,0
	c0.3,0.6,1.1,0.8,1.6,0.4l2-1.2c1.7,2.6,4,4.8,6.7,6.5l-1.2,2.1c-0.3,0.6-0.1,1.3,0.4,1.6l0,0c0.6,0.3,1.3,0.1,1.6-0.4l5.7-9.9
	c1.4,0.6,2.9,1.1,4.4,1.2v6.5c-2-0.1-3.9-0.5-5.8-1.2c-0.6-0.2-1.2,0.1-1.5,0.7l0,0c-0.3,0.6,0.1,1.4,0.7,1.6
	c2.1,0.8,4.3,1.2,6.6,1.3v1.4c0,1.3,1.1,2.4,2.4,2.4h0V12.6H0.3z M15.3,15h6.5l-5.6,3.2C15.7,17.2,15.4,16.1,15.3,15z M9.4,24.9
	l5.9-3.4c0.3,0.4,0.8,1,1.2,1.4c0.5,0.5,1.3,0.5,1.8,0l0,0c0.4-0.5,0.4-1.1,0-1.6c-0.3-0.4-0.7-0.8-0.9-1L23,17l-7.8,13.5
	C12.9,29,10.9,27.1,9.4,24.9z M21.8,23.9l3.2-5.6v6.5C23.9,24.6,22.8,24.3,21.8,23.9z"/>
</svg>
