<?xml version="1.0" encoding="utf-8"?>
<!-- Generator: Adobe Illustrator 21.0.0, SVG Export Plug-In . SVG Version: 6.00 Build 0)  -->
<svg version="1.1" id="图层_1" xmlns="http://www.w3.org/2000/svg" xmlns:xlink="http://www.w3.org/1999/xlink" x="0px" y="0px"
	 viewBox="0 0 165.9 50" style="enable-background:new 0 0 165.9 50;" xml:space="preserve">
<style type="text/css">
	.st0{fill:#FFFFFF;}
	.st1{fill:none;stroke:#474545;stroke-width:0.25;stroke-miterlimit:10;}
</style>
<g>
	<g>
		<polygon class="st0" points="55.5,18.5 60.1,18.5 60.1,35.8 63.1,35.8 63.1,18.5 67.7,18.5 67.7,15.7 55.5,15.7 		"/>
	</g>
	<g>
		<path class="st0" d="M78.1,24.6c-1.2-1.2-2.5-1.8-4-1.8c-1.7,0-3.1,0.6-4.3,1.9c-1.1,1.3-1.7,2.9-1.7,4.8c0,1.9,0.6,3.6,1.7,4.8
			c1.1,1.3,2.6,1.9,4.3,1.9c1.4,0,2.7-0.6,3.9-1.7v1.3H81V23.1h-2.9V24.6z M77.3,32.4c-0.7,0.7-1.5,1.1-2.6,1.1
			c-1,0-1.9-0.4-2.5-1.2c-0.7-0.8-1-1.8-1-3c0-1.1,0.3-2.1,1-2.9c0.7-0.8,1.5-1.1,2.5-1.1c1.1,0,1.9,0.4,2.6,1.1
			c0.7,0.8,1,1.8,1,2.9C78.3,30.7,77.9,31.6,77.3,32.4z"/>
	</g>
	<g>
		<path class="st0" d="M89.1,23.1c-0.4,0.2-0.9,0.6-1.4,1.2v-1.1h-2.9v12.7h2.9v-6.6c0-2.4,0.8-3.6,2.4-3.6c0.5,0,1.1,0.2,1.6,0.6
			l1.3-2.7c-0.8-0.5-1.6-0.8-2.4-0.8C90,22.7,89.5,22.9,89.1,23.1z"/>
	</g>
	<g>
		<path class="st0" d="M103.9,24.6c-1.2-1.2-2.5-1.8-4-1.8c-1.7,0-3.1,0.6-4.3,1.9c-1.1,1.3-1.7,2.9-1.7,4.8c0,1.9,0.6,3.6,1.7,4.8
			c1.1,1.3,2.6,1.9,4.3,1.9c1.4,0,2.7-0.6,3.9-1.7v1.3h2.9V23.1h-2.9V24.6z M103.1,32.4c-0.7,0.7-1.5,1.1-2.6,1.1
			c-1,0-1.9-0.4-2.5-1.2c-0.7-0.8-1-1.8-1-3c0-1.1,0.3-2.1,1-2.9c0.7-0.8,1.5-1.1,2.5-1.1c1.1,0,1.9,0.4,2.6,1.1
			c0.7,0.8,1,1.8,1,2.9C104.1,30.7,103.7,31.6,103.1,32.4z"/>
	</g>
	<g>
		<path class="st0" d="M116.9,22.7c-1.3,0-2.4,0.5-3.5,1.5v-1.2h-2.9v12.7h2.9v-6.1c0-1.6,0.2-2.7,0.6-3.3c0.4-0.6,1.1-1,2.1-1
			c0.9,0,1.5,0.2,1.8,0.7c0.3,0.5,0.5,1.3,0.5,2.6v7.1h2.9V28c0-1.8-0.4-3.1-1.1-3.9C119.6,23.2,118.4,22.7,116.9,22.7z"/>
	</g>
	<g>
		<polygon class="st0" points="128.2,18.5 125.2,18.5 125.2,23.1 124,23.1 124,25.8 125.2,25.8 125.2,35.8 128.2,35.8 128.2,25.8 
			130.4,25.8 130.4,23.1 128.2,23.1 		"/>
	</g>
	<g>
		<path class="st0" d="M140.3,30.4c0,2.1-0.8,3.2-2.5,3.2s-2.5-1.1-2.5-3.2v-7.3h-2.9v7.3c0,1.2,0.1,2,0.4,2.6
			c0.3,0.7,0.7,1.3,1.3,1.8c1,0.9,2.2,1.3,3.8,1.3c1.5,0,2.8-0.4,3.8-1.3c0.6-0.5,1-1.1,1.3-1.8c0.3-0.7,0.4-1.6,0.4-2.6v-7.3h-2.9
			V30.4z"/>
	</g>
	<g>
		<rect x="147" y="13.8" class="st0" width="2.9" height="22"/>
	</g>
	<g>
		<path class="st0" d="M163,23.1v1.5c-1.2-1.2-2.5-1.8-4-1.8c-1.7,0-3.1,0.6-4.3,1.9c-1.1,1.3-1.7,2.9-1.7,4.8
			c0,1.9,0.6,3.6,1.7,4.8c1.1,1.3,2.6,1.9,4.3,1.9c1.4,0,2.7-0.6,3.9-1.7v1.3h2.9V23.1H163z M162.1,32.4c-0.7,0.7-1.5,1.1-2.6,1.1
			c-1,0-1.9-0.4-2.5-1.2c-0.7-0.8-1-1.8-1-3c0-1.1,0.3-2.1,1-2.9c0.7-0.8,1.5-1.1,2.5-1.1c1.1,0,1.9,0.4,2.6,1.1
			c0.7,0.8,1,1.8,1,2.9C163.1,30.7,162.8,31.6,162.1,32.4z"/>
	</g>
</g>
<path class="st1" d="M8.2,16.6"/>
<path class="st1" d="M14.6,15.9"/>
<path class="st1" d="M15.8,20"/>
<g>
	<g>
		<path class="st0" d="M20.9,26.6c0,2.6,2.1,4.7,4.7,4.7s4.7-2.1,4.7-4.7c0-2.6-2.1-4.7-4.7-4.7S20.9,24.1,20.9,26.6z M28.8,26.7
			c0,1.8-1.5,3.3-3.3,3.3c-1.8,0-3.3-1.5-3.3-3.3c0-1.8,1.5-3.3,3.3-3.3C27.4,23.4,28.8,24.9,28.8,26.7z"/>
	</g>
	<g>
		<path class="st0" d="M23.1,25.8c0.4,0.4,1.1,0.5,1.5,0c0.4-0.4,0.5-1.1,0-1.5C24.3,23.8,22.7,25.3,23.1,25.8z"/>
	</g>
	<g>
		<path class="st0" d="M25.6,0c-13.8,0-25,11.2-25,25s11.2,25,25,25s25-11.2,25-25S39.4,0,25.6,0z M25.5,13.7c3.1,0,5.9,1.4,7.8,3.6
			l-3.2,3.9c-1.2-1-2.8-1.7-4.6-1.7c-1.7,0-3.3,0.6-4.5,1.6l-3.2-3.9C19.7,15.1,22.5,13.7,25.5,13.7z M32.1,26.6
			c0,3.6-2.9,6.5-6.5,6.5S19,30.3,19,26.6s2.9-6.5,6.5-6.5S32.1,23,32.1,26.6z M9.9,43.6c-0.1-1.2-0.1-2.5-0.1-3.7
			c0-6.6,0.8-13.1,2.3-19.2l-3.5-1.5c-2.3,5.3-4,10.8-5.1,16.6C4,28.7,5.4,21.8,7.5,15.4l5.2,3.2c0.4-1.3,0.8-2.6,1.2-3.9l0,0
			l6.7,6.9c-0.3,0.3-0.5,0.5-0.8,0.9c-2.5-1.8-4.8-3.5-4.8-3.5c-0.1,0.3-0.2,0.7-0.4,1l4.9,3c-0.2,0.3-0.3,0.6-0.5,0.9l-5-2.2
			C11.7,28.5,10.3,35.9,9.9,43.6z M25.5,34.4c-5.7,0-10.3-4.6-10.3-10.3c0-0.3,0-0.7,0-1l3.6,1.2c-0.3,0.7-0.4,1.5-0.4,2.4
			c0,3.9,3.2,7.1,7.1,7.1c3.9,0,7.1-3.2,7.1-7.1c0-0.8-0.1-1.6-0.4-2.3l3.5-1.2c0,0.3,0,0.6,0,0.9C35.9,29.7,31.2,34.4,25.5,34.4z
			 M42.6,19.1l-3.5,1.5c1.5,6.2,2.3,12.6,2.3,19.2c0,1.2,0,2.5-0.1,3.7c-0.4-7.7-1.8-15.1-4.2-22.1l-5.1,2.3
			c-0.1-0.3-0.3-0.6-0.5-0.9l5-3.1c-0.1-0.3-0.2-0.7-0.4-1c0,0-2.4,1.8-4.9,3.6c-0.2-0.3-0.5-0.6-0.7-0.8l6.8-6.9l0,0
			c0.4,1.3,0.8,2.6,1.2,3.9l5.2-3.2c2.1,6.5,3.5,13.3,3.9,20.4C46.5,30,44.8,24.4,42.6,19.1z"/>
	</g>
</g>
</svg>
